<?xml version="1.0" encoding="utf-8"?>
<!-- Generator: Adobe Illustrator 21.0.0, SVG Export Plug-In . SVG Version: 6.00 Build 0)  -->
<svg version="1.1" id="Layer_1" xmlns="http://www.w3.org/2000/svg" xmlns:xlink="http://www.w3.org/1999/xlink" x="0px" y="0px"
	 viewBox="0 0 900 900" style="enable-background:new 0 0 900 900;" xml:space="preserve">
<style type="text/css">
	.st0{fill:none;stroke:#716F82;stroke-width:7;stroke-miterlimit:10;}
	.st1{fill:#072050;}
	.st2{fill:#747282;}
	.st3{fill:#2D2D3A;}
	.st4{fill:#FFFFFF;}
	.st5{fill:#A29FB0;}
	.st6{fill:#6E89C4;}
	.st7{fill:#EA5444;}
	.st8{fill:#FFC543;}
	.st9{fill:#A2CC3B;}
	.st10{fill:#313D6E;}
	.st11{fill:#678C6E;}
	.st12{opacity:0.55;fill:#C5CBED;}
	.st13{fill:#7C4B39;}
	.st14{fill:#FCBBA4;}
	.st15{fill:#FFC7B0;}
	.st16{fill:#081344;}
	.st17{opacity:0.2;fill:#081344;}
	.st18{fill:#716F82;}
	.st19{fill:#B1AEC1;}
	.st20{fill:#585668;}
	.st21{fill:#DDDDDD;}
	.st22{fill:#767684;}
	.st23{fill:#1F3468;}
	.st24{fill:#ABA9C4;}
	.st25{fill:#4A4960;}
	.st26{fill:#E79271;}
	.st27{fill:#A5483C;}
	.st28{fill:#84352F;}
	.st29{fill:#7F3954;}
	.st30{fill:#6E3856;}
	.st31{fill:#DF7D54;}
	.st32{fill:none;stroke:#081344;stroke-width:1.4933;stroke-linecap:round;stroke-miterlimit:10;}
	.st33{fill:#1C1C2D;}
	.st34{fill:#A0523A;}
	.st35{fill:#25253A;}
	.st36{fill:#9F293B;}
	.st37{fill:#F14747;}
	.st38{opacity:0.32;fill:#25253A;}
	.st39{fill:#ECEEF0;}
	.st40{opacity:0.55;fill:#CDD6F9;}
	.st41{fill:#FC4F42;}
	.st42{opacity:0.79;fill:#CE2D29;}
	.st43{fill:#6075B0;}
	.st44{fill:#794061;}
	.st45{fill:#072859;}
	.st46{fill:#F3885E;}
	.st47{fill:#FFBE62;}
	.st48{fill:#FBAF3D;}
	.st49{fill:#FFD72E;}
	.st50{fill:#F38154;}
	.st51{fill:#709B2C;}
	.st52{fill:#4C842F;}
	.st53{fill:none;stroke:#081344;stroke-width:4.5943;stroke-miterlimit:10;}
	.st54{fill:#517F38;}
	.st55{fill:#3B6837;}
	.st56{fill:#65B15B;}
	.st57{fill:#62324A;}
</style>
<line class="st0" x1="63.7" y1="705.3" x2="843.6" y2="705.3"/>
<g>
	
		<rect x="176.6" y="302.2" transform="matrix(-1 -1.224647e-16 1.224647e-16 -1 419.2346 746.7131)" class="st1" width="66.1" height="142.2"/>
	<g>
		<path class="st2" d="M103.1,394.6h212V257.7c0-4.8-3.9-8.7-8.7-8.7H111.8c-4.8,0-8.7,3.9-8.7,8.7V394.6z"/>
		<path class="st2" d="M123.5,415.8h175.4c10.1,0,18.3-8.2,18.3-18.3v-7h-212v7C105.1,407.6,113.3,415.8,123.5,415.8z"/>
		<path class="st3" d="M322.6,257.6v136.9l-52-0.8l-54.5-0.9l-17.2-0.3l-55-0.9l-33.3-0.5V257.6c0-4.8,3.9-8.7,8.7-8.7h194.7
			C318.7,249,322.6,252.9,322.6,257.6z"/>
		<path class="st4" d="M118.4,261.5v120.8c0,0.4,0.4,0.8,0.8,0.8h194.6c0.4,0,0.8-0.4,0.8-0.8V261.5c0-0.4-0.4-0.8-0.8-0.8H119.3
			C118.8,260.7,118.4,261.1,118.4,261.5z"/>
		<path class="st5" d="M128.9,415.8h175.4c10.1,0,18.3-8.2,18.3-18.3v-7h-212v7C110.6,407.6,118.8,415.8,128.9,415.8z"/>
	</g>
	<path class="st5" d="M174.9,445h88.6c2.7,0,4.9-2.2,4.9-4.9l0,0c0-2.7-2.2-4.9-4.9-4.9h-88.6c-2.7,0-4.9,2.2-4.9,4.9l0,0
		C170,442.8,172.2,445,174.9,445z"/>
	<g>
		<path class="st6" d="M305.3,282H131c-1.5,0-2.6-1.2-2.6-2.6v-10.2c0-1.5,1.2-2.6,2.6-2.6h174.3c1.5,0,2.6,1.2,2.6,2.6v10.2
			C308,280.8,306.8,282,305.3,282z"/>
		<g>
			<g>
				<ellipse class="st7" cx="138.7" cy="274" rx="3.3" ry="3.4"/>
			</g>
		</g>
		<g>
			<g>
				<ellipse class="st8" cx="150.7" cy="274" rx="3.3" ry="3.4"/>
			</g>
		</g>
		<g>
			<g>
				<ellipse class="st9" cx="162.7" cy="274" rx="3.3" ry="3.4"/>
			</g>
		</g>
		<path class="st10" d="M187.8,309h-58.2c-0.9,0-1.6-0.7-1.6-1.6v-17.8c0-0.9,0.7-1.6,1.6-1.6h58.2c0.9,0,1.6,0.7,1.6,1.6v17.8
			C189.4,308.3,188.7,309,187.8,309z"/>
		<path class="st11" d="M259.3,335.5H201c-0.9,0-1.6-0.7-1.6-1.6v-17.8c0-0.9,0.7-1.6,1.6-1.6h58.2c0.9,0,1.6,0.7,1.6,1.6v17.8
			C260.9,334.8,260.2,335.5,259.3,335.5z"/>
		<path class="st11" d="M306.4,309h-35.2c-0.9,0-1.6-0.7-1.6-1.6v-17.8c0-0.9,0.7-1.6,1.6-1.6h35.2c0.9,0,1.6,0.7,1.6,1.6v17.8
			C308,308.3,307.3,309,306.4,309z"/>
		<path class="st7" d="M306.4,335.9h-35.2c-0.9,0-1.6-0.7-1.6-1.6v-17.8c0-0.9,0.7-1.6,1.6-1.6h35.2c0.9,0,1.6,0.7,1.6,1.6v17.8
			C308,335.2,307.3,335.9,306.4,335.9z"/>
		<g>
			<rect x="199.9" y="304.9" class="st1" width="61.4" height="1.5"/>
			<rect x="199.9" y="299.5" class="st1" width="61.4" height="1.5"/>
			<rect x="199.9" y="294.2" class="st1" width="61.4" height="1.5"/>
			<rect x="199.9" y="288.8" class="st1" width="61.4" height="1.5"/>
		</g>
		<path class="st7" d="M187.8,361.5h-58.2c-0.9,0-1.6-0.7-1.6-1.6v-17.8c0-0.9,0.7-1.6,1.6-1.6h58.2c0.9,0,1.6,0.7,1.6,1.6v17.8
			C189.4,360.8,188.7,361.5,187.8,361.5z"/>
		<g>
			<rect x="199.9" y="357.3" class="st1" width="61.4" height="1.5"/>
			<rect x="199.9" y="352" class="st1" width="61.4" height="1.5"/>
			<rect x="199.9" y="346.6" class="st1" width="61.4" height="1.5"/>
			<rect x="199.9" y="341.3" class="st1" width="61.4" height="1.5"/>
		</g>
		<g>
			<rect x="127.7" y="330.5" class="st1" width="61.4" height="1.5"/>
			<rect x="127.7" y="325.1" class="st1" width="61.4" height="1.5"/>
			<rect x="127.7" y="319.8" class="st1" width="61.4" height="1.5"/>
			<rect x="127.7" y="314.5" class="st1" width="61.4" height="1.5"/>
		</g>
	</g>
	<polygon class="st12" points="281.8,249 216.1,390.7 143.8,390.7 209,249 	"/>
</g>
<g>
	<path class="st13" d="M329.4,178.4l13.6,8.4c9.8,6.1,13.3,18.7,8.1,29c-1,2-1.7,3.4-1.6,3.2c0.5-0.6-20.8-40.4-20.8-40.4"/>
	<path class="st14" d="M294,308.3h-7c-6.4,0-11.7-5.3-11.7-11.7v-33c0-6.4,5.3-11.7,11.7-11.7h7c6.4,0,11.7,5.3,11.7,11.7v33
		C305.7,303,300.5,308.3,294,308.3z"/>
	<path class="st13" d="M349.2,219.1c0.3,2.7-12.1,7.2-12.3,10l2,5.6c-15.3-5.5-1.8,2.9-1.8,2.9c-4.5,13.5-3,20.9-15.9,26.1
		c-6.5,2.6-13.6,3.7-21,3.2c-9.9-0.7-18.7,2.4-25.9-1c-1.5-0.7-2.9-1.7-4.2-3c-2.5-2.5-4.8-5.3-6.7-8.3c-0.7-1.2-1.4-2.4-2.1-3.6
		c-3.9-7.6-11.9-29.7-11.3-38.8c1.8-25.7,26.4-42.9,54.8-41c0.7,0.1,1.4,0.1,2.2,0.1c15.3,1.1,28.4,9.2,36.4,21
		c0.4,0.6,0.8,1.3,1.2,1.9c0,0,0,0,0,0c2.3,3.7,3.5,19.8,3.5,19.8C348.7,215.6,349,217.3,349.2,219.1z"/>
	<path class="st15" d="M348.1,227.3l-0.4,7.1l-0.6,11.7l-1,4.1c-0.1,1.8-1,11.5-1.4,13.3c-3.2,16.6-14.1,20.1-31,22.2
		c-0.5,0.1-1,0.1-1.5,0.1c-1.8,0.2-3.6,0.2-5.5,0.1c-1.8-0.1-3.6-0.3-5.3-0.6c-3.4-0.6-6.6-1.7-9.6-3.1c0,0,0,0,0,0
		c-7.5-3.5-13.6-9.3-17.6-16.3c-3-5.3-4.8-11.4-5-17.8c0-0.4,0-0.9,0-1.3c0-0.5,0-1,0-1.6v-0.3l0-1.3l0.2-3.3l0.6-11.5l0-0.1v0
		l0.1-2.1l0.1-1.7l0.1-1.5l0-0.4c0.2-2.7,0.7-5.2,1.5-7.7c0.5-1.7,1.2-3.4,1.9-5c0.1-0.3,0.2-0.5,0.3-0.7c0.6-1.3,1.3-2.6,2-3.9
		c0,0,0,0,0,0c2.8-4.8,6.7-8.9,11.2-12c0.9-0.6,1.8-1.3,2.8-1.8c6.6-3.9,14.3-5.9,22.5-5.5c6.8,0.4,11.8,2.4,17.3,5.7
		c3.3,2,6.3,4.4,8.9,7.3c3.7,4,6,8.7,7.8,13.8c0.1,0.3,0.2,0.6,0.3,0.9c0.5,1.7,0.9,3.4,1.1,5.2
		C348.2,221.7,348.2,224.5,348.1,227.3z"/>
	<path class="st13" d="M333.8,192.3c8.3,22.8-13.5,20.9-14.5,31.4c-0.1,1.2-0.5,2.9-0.8,11.5l-1.7,5.4c-0.5,1.7-2,2.8-3.8,2.8
		c-2.2,0-3.9-1.8-3.9-3.9v-0.1l0.2-8.5l-4.2,11.3c-3.1,8.1-7.7,15.5-13.6,21.7c-4.9,5.1-10.6,9.5-16.9,12.8c0,0-26.6-15.8-26.6-51.9
		c0-2.9,0.2-5.9,0.5-9c0.3-2.8,0.8-5.4,1.4-7.9c11-44.8,66.1-29.5,71.4-27.5C326.9,182.4,333.8,192.3,333.8,192.3z"/>
	<path class="st15" d="M352.8,251.5c0,0.1,0,0.6,0,0.6c-0.1,2.5-2.2,4.4-7.5,4.3l0.7-19.3C350.3,243.6,352.4,247.4,352.8,251.5z"/>
	<path class="st13" d="M349.9,228.2h-11.8c-1.4,0-2.5-1.1-2.5-2.5l0,0c0-1.4,1.1-2.5,2.5-2.5h11.8c1.4,0,2.5,1.1,2.5,2.5v0
		C352.4,227,351.3,228.2,349.9,228.2z"/>
	<path class="st16" d="M343.3,237L343.3,237c-1,0-1.8-0.8-1.8-1.8v-2.6c0-1,0.8-1.8,1.8-1.8l0,0c1,0,1.8,0.8,1.8,1.8v2.6
		C345.1,236.2,344.3,237,343.3,237z"/>
	<path class="st17" d="M291.5,263.8c-4.9,5.1-10.6,9.5-16.9,12.8c0,0-26.6-15.8-26.6-51.9c0-2.9,0.2-5.9,0.5-9
		c0.3-2.8,0.8-5.4,1.4-7.9c1.2,6.9,4.3,17.3,12.2,30.1C274.1,257.5,287.2,262.6,291.5,263.8z"/>
	<path class="st13" d="M345.2,262.3l-0.4,13.5c0,11.5-13.6,16.1-23.7,15L305,289l1.6-13.9l4.4-26.7l-7.1-19.9l14.6,6.1l0,0
		c-1.1,15.8,10.2,28.6,26.1,27.9L345.2,262.3z"/>
	<path class="st14" d="M308.1,228c1.6,0,2.9,1.3,2.9,3l-0.1,10l-0.1,8.8l-3.4,0c-0.3,0-0.5,0-0.7,0c-5.8-0.4-10.3-5.5-10.3-11.2
		c0-3,1.3-5.5,3.3-7.5c1.8-1.8,4.2-2.8,6.9-2.9l0,0c0.3,0,0.6-0.1,0.9,0L308.1,228z"/>
	<g>
		
			<rect x="204.8" y="521.2" transform="matrix(-1 -1.224647e-16 1.224647e-16 -1 502.1018 1059.5063)" class="st16" width="92.6" height="17.1"/>
		<line class="st10" x1="173.2" y1="680.5" x2="173.2" y2="687"/>
		
			<rect x="558.8" y="522.7" transform="matrix(-1 -1.224647e-16 1.224647e-16 -1 1202.48 1062.3907)" class="st18" width="84.8" height="17.1"/>
		<rect x="630" y="464.6" class="st18" width="19.3" height="240.5"/>
		<rect x="552.5" y="463.1" class="st19" width="19.3" height="241.9"/>
		<rect x="552.5" y="453.4" class="st18" width="19.3" height="103.2"/>
		
			<rect x="96.2" y="522.7" transform="matrix(-1 -1.224647e-16 1.224647e-16 -1 277.1468 1062.3907)" class="st18" width="84.8" height="17.1"/>
		<rect x="167.3" y="464.6" class="st18" width="19.3" height="240.5"/>
		<rect x="89.9" y="463.1" class="st18" width="19.3" height="241.9"/>
		<g>
			<rect x="446.8" y="303.1" class="st20" width="63.7" height="137"/>
			<g>
				<g>
					<path class="st21" d="M578.2,395H368.9V267.2c0-4.6,3.7-8.4,8.4-8.4h192.6c4.6,0,8.4,3.7,8.4,8.4V395z"/>
					<path class="st21" d="M558.5,415.5h-174c-9.7,0-17.6-7.9-17.6-17.6v-6.8h209.3v6.8C576.2,407.6,568.3,415.5,558.5,415.5z"/>
					<path class="st22" d="M571,267.2V395H361.7V267.2c0-4.6,3.7-8.3,8.4-8.3h192.6C567.3,258.9,571,262.6,571,267.2z"/>
					<path class="st23" d="M563.4,266.9v116.3c0,0.4-0.4,0.8-0.8,0.8H370.1c-0.4,0-0.8-0.4-0.8-0.8V266.9c0-0.4,0.4-0.8,0.8-0.8
						h192.5C563,266.2,563.4,266.5,563.4,266.9z"/>
					<path class="st24" d="M571,391.1v6.8c0,7.1-4.2,13.2-10.2,16c-2.3,1.1-4.8,1.6-7.5,1.6h-174c-9.7,0-17.6-7.9-17.6-17.6v-6.8
						H571z"/>
				</g>
				<g>
					<g>
						<rect x="380.5" y="280.5" class="st6" width="65" height="2.3"/>
						<rect x="473.8" y="280.5" class="st21" width="30.8" height="2.3"/>
						<rect x="518.2" y="280.5" class="st8" width="30.8" height="2.3"/>
						<rect x="507.3" y="280.5" class="st6" width="7.3" height="2.3"/>
						<rect x="448.6" y="280.5" class="st7" width="21.6" height="2.3"/>
					</g>
					<g>
						<rect x="380.5" y="338.2" class="st6" width="65" height="2.3"/>
						<rect x="473.8" y="338.2" class="st21" width="30.8" height="2.3"/>
						<rect x="518.2" y="338.2" class="st8" width="30.8" height="2.3"/>
						<rect x="507.3" y="338.2" class="st6" width="7.3" height="2.3"/>
						<rect x="448.6" y="338.2" class="st5" width="21.6" height="2.3"/>
					</g>
					<g>
						
							<rect x="484" y="319" transform="matrix(-1 -1.224647e-16 1.224647e-16 -1 1032.9761 640.1553)" class="st6" width="65" height="2.3"/>
						
							<rect x="425" y="319" transform="matrix(-1 -1.224647e-16 1.224647e-16 -1 880.769 640.1553)" class="st21" width="30.8" height="2.3"/>
						
							<rect x="380.5" y="319" transform="matrix(-1 -1.224647e-16 1.224647e-16 -1 791.8646 640.1553)" class="st8" width="30.8" height="2.3"/>
						
							<rect x="415" y="319" transform="matrix(-1 -1.224647e-16 1.224647e-16 -1 837.2158 640.1553)" class="st6" width="7.3" height="2.3"/>
						
							<rect x="459.3" y="319" transform="matrix(-1 -1.224647e-16 1.224647e-16 -1 940.2713 640.1553)" class="st5" width="21.6" height="2.3"/>
					</g>
					<g>
						<rect x="380.5" y="290.1" class="st7" width="24.4" height="2.3"/>
						<rect x="453.4" y="290.1" class="st6" width="10.5" height="2.3"/>
						<rect x="497.9" y="290.1" class="st21" width="51.1" height="2.3"/>
						<rect x="466.6" y="290.1" class="st6" width="27.6" height="2.3"/>
						<rect x="408" y="290.1" class="st6" width="41.9" height="2.3"/>
					</g>
					<g>
						<rect x="380.5" y="347.8" class="st6" width="24.4" height="2.3"/>
						<rect x="453.4" y="347.8" class="st6" width="10.5" height="2.3"/>
						<rect x="497.9" y="347.8" class="st6" width="51.1" height="2.3"/>
						<rect x="466.6" y="347.8" class="st6" width="27.6" height="2.3"/>
						<rect x="408" y="347.8" class="st6" width="41.9" height="2.3"/>
					</g>
					<g>
						<rect x="380.5" y="328.6" class="st7" width="24.4" height="2.3"/>
						<rect x="453.4" y="328.6" class="st6" width="10.5" height="2.3"/>
						<rect x="497.9" y="328.6" class="st21" width="51.1" height="2.3"/>
						<rect x="466.6" y="328.6" class="st6" width="27.6" height="2.3"/>
						<rect x="408" y="328.6" class="st6" width="41.9" height="2.3"/>
					</g>
					<g>
						<rect x="380.5" y="299.7" class="st21" width="24.4" height="2.3"/>
						<rect x="408" y="299.7" class="st6" width="41.9" height="2.3"/>
					</g>
					<g>
						
							<rect x="425.5" y="309.3" transform="matrix(-1 -1.224647e-16 1.224647e-16 -1 875.3616 620.9472)" class="st21" width="24.4" height="2.3"/>
						
							<rect x="380.5" y="309.3" transform="matrix(-1 -1.224647e-16 1.224647e-16 -1 802.9777 620.9472)" class="st6" width="41.9" height="2.3"/>
					</g>
				</g>
			</g>
			<path class="st25" d="M509,443.6h-85.3c-2.6,0-4.7-2.1-4.7-4.7v0c0-2.6,2.1-4.7,4.7-4.7H509c2.6,0,4.7,2.1,4.7,4.7v0
				C513.8,441.5,511.6,443.6,509,443.6z"/>
		</g>
		<path class="st26" d="M665.8,464.4H396.7v-13.9c0-4.2,3.4-7.6,7.6-7.6h253.9c4.2,0,7.6,3.4,7.6,7.6V464.4z"/>
		<g>
			<path class="st27" d="M587.3,450.5v13.9H69.2v-13.9c0-4.2,3.4-7.6,7.6-7.6h502.9C583.9,442.9,587.3,446.3,587.3,450.5z"/>
			<path class="st28" d="M437.4,442.9c-4.1,6.7-9,14.7-13.2,21.5H297.5l1.7-21.5H437.4z"/>
		</g>
		<g>
			
				<rect x="692.7" y="538.2" transform="matrix(-1 -7.510710e-07 7.510710e-07 -1 1518.5654 1243.2682)" class="st29" width="133.1" height="166.8"/>
			
				<rect x="645.5" y="538.2" transform="matrix(-1 -7.642572e-07 7.642572e-07 -1 1421.9041 1243.2686)" class="st30" width="130.8" height="166.8"/>
			<g>
				
					<rect x="644" y="550.7" transform="matrix(-1 -1.224647e-16 1.224647e-16 -1 1412.198 1146.5487)" class="st31" width="124.1" height="45.1"/>
				
					<rect x="644" y="603.7" transform="matrix(-1 -1.224647e-16 1.224647e-16 -1 1412.198 1252.4766)" class="st31" width="124.1" height="45.1"/>
				
					<rect x="644" y="656.6" transform="matrix(-1 -1.224647e-16 1.224647e-16 -1 1412.198 1361.6882)" class="st31" width="124.1" height="48.4"/>
			</g>
			<g>
				<path class="st4" d="M683.5,575.7h31c1.3,0,2.4-1.1,2.4-2.4l0,0c0-1.3-1.1-2.4-2.4-2.4h-31c-1.3,0-2.4,1.1-2.4,2.4l0,0
					C681.1,574.6,682.2,575.7,683.5,575.7z"/>
				<path class="st4" d="M682.3,628.3h31c1.3,0,2.4-1.1,2.4-2.4l0,0c0-1.3-1.1-2.4-2.4-2.4h-31c-1.3,0-2.4,1.1-2.4,2.4l0,0
					C679.9,627.2,681,628.3,682.3,628.3z"/>
				<path class="st4" d="M682.3,680.9h31c1.3,0,2.4-1.1,2.4-2.4v0c0-1.3-1.1-2.4-2.4-2.4h-31c-1.3,0-2.4,1.1-2.4,2.4l0,0
					C679.9,679.8,681,680.9,682.3,680.9z"/>
			</g>
		</g>
		<g>
			<g>
				<path class="st29" d="M341.9,715.3l62.2,0.7c3.7,0,6.7-2.9,6.8-6.6l0,0c0-2.9-1.7-5.4-4.4-6.4l-30.7-11.1l-33.6,0.5L341.9,715.3
					z"/>
				<path class="st16" d="M405.4,717.7l-63-0.2l0-4.5l67.5,0.2l0,0C409.9,715.7,407.9,717.7,405.4,717.7z"/>
			</g>
			<g>
				<line class="st32" x1="375" y1="700.9" x2="382.4" y2="693.1"/>
				<line class="st32" x1="380.4" y1="703.2" x2="387.7" y2="695.4"/>
				<line class="st32" x1="385.5" y1="706.2" x2="393.8" y2="697.4"/>
			</g>
			<g>
				<path class="st33" d="M339.8,694.8c3.6-60.7,2.6-116.8-2.1-128.1c-4.8-7.1-42.6-22.3-80.4-24l17.7-38.6
					c49.5,2.5,84.9,21.1,97.3,42.3c5.2,9,9.8,27,7.3,88.9c-1.3,32.4-2.9,57.8-2.9,57.8L339.8,694.8z"/>
			</g>
			<g>
				<path class="st34" d="M397.3,716.8l62.2,0.4c3.7,0,6.7-3,6.8-6.7l0,0c0-2.9-1.8-5.4-4.5-6.4l-30.7-10.9l-33.6,0.6L397.3,716.8z"
					/>
				<path class="st16" d="M460.8,719l-64,0l0-4.5l68.5,0l0,0C465.3,716.9,463.2,719,460.8,719z"/>
			</g>
			<g>
				<line class="st32" x1="430.4" y1="702.3" x2="437.7" y2="694.5"/>
				<line class="st32" x1="435.7" y1="704.6" x2="443" y2="696.8"/>
				<line class="st32" x1="440.8" y1="707.6" x2="449.1" y2="698.8"/>
			</g>
			<g>
				<path class="st33" d="M395.1,694.8c3.6-60.7,2.6-116.8-2.1-128.1c-4.8-7.1-42.6-22.3-80.4-24l17.7-38.6
					c49.5,2.5,84.9,21.1,97.3,42.3c5.2,9,9.8,27,7.3,88.9c-1.3,32.4-2.9,57.8-2.9,57.8L395.1,694.8z"/>
			</g>
			<path class="st33" d="M341.9,515.2c0,6.8-2.4,13-6.4,17.9c-5.1,6.2-12.9,10.2-21.7,10.2h-47.2c-1.4,0-2.8-0.1-4.1-0.3
				c-3.5-0.5-6.7-1.6-9.6-3.3c-0.5-0.3-1-0.6-1.5-0.9c-7.7-5-12.8-13.7-12.8-23.5l0.9-15l101.7-0.9L341.9,515.2z"/>
			<g>
				<g>
					<g>
						<path class="st14" d="M374.3,435.2l24.3-3.9c1.8-0.3,3-2,2.7-3.7l0,0c-0.3-1.8-2-3-3.7-2.7l-24.3,3.9c-1.8,0.3-3,2-2.7,3.7
							l0,0C370.8,434.3,372.5,435.5,374.3,435.2z"/>
						<path class="st14" d="M382,441.8l19.5-3.1c1.8-0.3,3-2,2.7-3.7l0,0c-0.3-1.8-2-3-3.7-2.7l-19.5,3.1c-1.8,0.3-3,2-2.7,3.7l0,0
							C378.6,440.9,380.3,442.1,382,441.8z"/>
						<path class="st14" d="M377.5,450.4l23.1-3.7c1.8-0.3,3-2,2.7-3.7l0,0c-0.3-1.8-2-3-3.7-2.7l-23.1,3.7c-1.8,0.3-3,2-2.7,3.7
							l0,0C374.1,449.4,375.7,450.6,377.5,450.4z"/>
					</g>
					<path class="st14" d="M384.8,429c-0.3,0-3.2,0-6.5-0.1c-5.6-0.1-11.1,1.1-16.1,3.6l-9.6,4.7c0,0,5.5,16.3,6.3,16.4
						c18.5,3.3,24.8-5.1,24.8-5.1L384.8,429z"/>
				</g>
				<rect x="362.3" y="428.9" class="st4" width="8.2" height="26.7"/>
			</g>
			<g>
				<path class="st33" d="M308.4,458.5c-19.4,0-37.1-11.3-45.2-28.9l-0.4-0.9l-25.3-77.4l31.2-10.2l24.7,75.4
					c2.9,5.6,8.8,9.2,15.2,9.1l53.8-0.5l0.3,32.9l-53.8,0.5C308.8,458.5,308.6,458.5,308.4,458.5z"/>
			</g>
			<g>
				<g>
					<path class="st14" d="M484.1,426.6c-2-3.6-5-6.5-8.7-8.3c0,0-0.1,0-0.1,0c-5-2.5-10.5-3.7-16.1-3.6l-10.7,0.2
						c0,0-2.7,23.2-2.6,22.4c0.3-1.5,26.1-1.1,38-0.9c2.6,0.1,4.2-2.7,3-4.9L484.1,426.6z"/>
				</g>
				<rect x="442" y="413.1" class="st4" width="10.2" height="27.3"/>
			</g>
			<g>
				<path class="st35" d="M392.1,443.5c-19.4,0-37.1-11.3-45.2-28.9l-36.5-79l29.8-13.8l36.5,79c2.8,6,8.8,9.9,15.5,9.8l53.8-0.5
					l0.3,32.9l-53.8,0.5C392.4,443.5,392.2,443.5,392.1,443.5z"/>
			</g>
			<path class="st35" d="M350.6,351.1l-0.6,69l-0.8,87.8c0,0-1.9,2.1-7.5,5.1c-4.9,2.6-12.6,5.8-24.3,8.8
				c-13.7,3.5-32.9,4.1-49.4,3.7c-18.1-0.4-32.9-2-32.9-2l0.4-172.4c0-24.3,17.6-44.4,40.7-48.5c2.8-0.5,5.6-0.7,8.6-0.7h16.6
				C328.5,301.9,350.6,323.9,350.6,351.1z"/>
			<g>
				<g>
					<rect x="273.8" y="577.4" class="st19" width="16.6" height="95.4"/>
					<path class="st18" d="M273.8,582.8v20.9l16.6-6.1v-14.1C286.2,583.3,278.2,583,273.8,582.8z"/>
				</g>
				<path class="st3" d="M333.2,585.6h-99.5c-5.1,0-9.3-4.2-9.3-9.3l0,0c0-5.1,4.2-9.3,9.3-9.3h99.5c5.1,0,9.3,4.2,9.3,9.3l0,0
					C342.5,581.5,338.3,585.6,333.2,585.6z"/>
				<g>
					<g>
						<path class="st3" d="M352.5,703.6h-10.4c0-11.7-10.1-21.2-22.5-21.2h-75.7c-12.4,0-22.5,9.5-22.5,21.2H211
							c0-17.1,14.8-31,32.9-31h75.7C337.7,672.5,352.5,686.5,352.5,703.6z"/>
					</g>
					<rect x="269.9" y="657.8" class="st3" width="24.3" height="14.9"/>
				</g>
				<g>
					<ellipse class="st16" cx="215.8" cy="713" rx="8.6" ry="8.1"/>
					<path class="st1" d="M228.2,712.3h-23.6v-2.2c0-6.1,4.9-11,11-11h1.6c6.1,0,11,4.9,11,11V712.3z"/>
					<ellipse class="st16" cx="347.8" cy="713" rx="8.6" ry="8.1"/>
					<path class="st1" d="M360.3,712.3h-23.6v-2.2c0-6.1,4.9-11,11-11h1.6c6.1,0,11,4.9,11,11V712.3z"/>
				</g>
				<rect x="275.6" y="675.6" class="st3" width="13.8" height="29.4"/>
				<g>
					<ellipse class="st16" cx="282.8" cy="713" rx="8.6" ry="8.1"/>
					<path class="st1" d="M295.2,712.3h-23.6v-2.2c0-6.1,4.9-11,11-11h1.6c6.1,0,11,4.9,11,11V712.3z"/>
				</g>
			</g>
			<path class="st36" d="M149.8,398l22.2,160.6c1.4,9.8,9.6,17.1,19.4,17.4l81.2,0.9l-45.1-202l-57.6,0
				C157.6,374.9,148.1,385.8,149.8,398z"/>
			<path class="st37" d="M368.5,576.9H255.7c-9.6,0-17.5-7.9-17.5-17.5v0c0-9.6,7.9-17.5,17.5-17.5h112.9c9.6,0,17.5,7.9,17.5,17.5
				v0C386,569.1,378.2,576.9,368.5,576.9z"/>
			<path class="st33" d="M262.1,345.9c-2.2,31.7,4,145.9,5.9,179.6c-18.1-0.4-32.9-2-32.9-2l0.4-172.4c0-24.3,17.6-44.4,40.7-48.5
				C276.2,302.6,264.7,308.6,262.1,345.9z"/>
			<polygon class="st4" points="318.7,304.9 267.9,304.9 267.9,290.7 318.7,296.7 			"/>
			<path class="st37" d="M236.7,554.8l-23.6-164.7c-1.1-7.3,4.5-14.2,12.2-15.1l0,0c7.8-1,15,4.2,16.1,11.5L265,551.2
				c1.1,7.3-4.5,14.2-12.2,15.1l0,0C245,567.4,241,572.9,236.7,554.8z"/>
			<path class="st33" d="M350,420.1l-0.8,87.8c0,0-1.9,2.1-7.5,5.1L330,380.6C330,380.6,340.7,407.4,350,420.1z"/>
		</g>
	</g>
	<path class="st38" d="M570.7,358.7l-5.8,32.5l-4.1,22.7c-2.3,1.1-4.8,1.6-7.5,1.6h-55c5.2-5.4,14-14.5,23.4-24.4
		c14.7-15.4,31-32.9,38.3-41.8L570.7,358.7z"/>
</g>
<g>
	<path class="st21" d="M540.4,442.6h108.9c0.6-0.9,1.1-1.9,1.4-2.9l24.4-87.9c1.2-4.2-2-8.3-6.3-8.3h-95.8c-3,0-5.5,2-6.3,4.8
		L540.4,442.6z"/>
	<path class="st5" d="M669.8,348.7l-24.3,87.8c-1.1,4.1-4.9,6.9-9.1,6.9H534.3l27.2-98.3c0.8-2.8,3.4-4.8,6.3-4.8h95.7
		C667.9,340.3,671,344.5,669.8,348.7z"/>
	<path class="st23" d="M664.5,352.5l-19.9,71.6l-4.2,15H539.1l4.2-15l20.8-74.9c0.7-2.6,3.1-4.4,5.9-4.4h88.7
		C662.6,344.8,665.5,348.7,664.5,352.5z"/>
	<g>
		<g>
			<polygon class="st39" points="604.8,354.6 573.6,354.6 574.3,352.4 605.5,352.4 			"/>
			<polygon class="st7" points="633.1,354.6 618.3,354.6 619,352.4 633.7,352.4 			"/>
			<polygon class="st5" points="654.4,354.6 639.6,354.6 640.3,352.4 655.1,352.4 			"/>
			<polygon class="st6" points="637.9,354.6 634.4,354.6 635.1,352.4 638.6,352.4 			"/>
			<polygon class="st5" points="616.6,354.6 606.2,354.6 606.9,352.4 617.3,352.4 			"/>
		</g>
		<g>
			<polygon class="st21" points="583,392 597.8,392 598.5,389.8 583.7,389.8 			"/>
			<polygon class="st8" points="561.7,392 576.5,392 577.2,389.8 562.4,389.8 			"/>
			<polygon class="st6" points="578.2,392 581.7,392 582.4,389.8 578.9,389.8 			"/>
		</g>
		<g>
			<polygon class="st7" points="582.3,363.9 570.6,363.9 571.3,361.7 583,361.7 			"/>
			<polygon class="st6" points="610.6,363.9 605.6,363.9 606.3,361.7 611.3,361.7 			"/>
			<polygon class="st7" points="651.4,363.9 626.9,363.9 627.6,361.7 652.1,361.7 			"/>
			<polygon class="st6" points="625.2,363.9 611.9,363.9 612.6,361.7 625.8,361.7 			"/>
			<polygon class="st6" points="603.9,363.9 583.8,363.9 584.5,361.7 604.6,361.7 			"/>
		</g>
		<g>
			<polygon class="st10" points="564.5,420.1 552.8,420.1 553.5,417.9 565.2,417.9 			"/>
		</g>
		<g>
			<polygon class="st21" points="579.3,373.3 567.6,373.3 568.3,371.1 580,371.1 			"/>
			<polygon class="st21" points="598.4,373.3 586.7,373.3 587.4,371.1 599.1,371.1 			"/>
			<polygon class="st6" points="645.2,373.3 625.1,373.3 625.8,371.1 645.9,371.1 			"/>
		</g>
		<g>
			<polygon class="st6" points="564.7,382.6 584.8,382.6 585.5,380.4 565.4,380.4 			"/>
		</g>
	</g>
	<polygon class="st5" points="645.9,424.2 641.6,439.2 537.7,439.2 542,424.2 	"/>
	<g>
		<path class="st5" d="M589.9,443.7H465.5c-2.9,0-5.3-2.4-5.3-5.3l0,0c0-2.9,2.4-5.3,5.3-5.3h124.4c2.9,0,5.3,2.4,5.3,5.3l0,0
			C595.2,441.3,592.9,443.7,589.9,443.7z"/>
	</g>
	<polygon class="st40" points="638.9,340.3 636.8,344.8 600.6,424.1 596.9,432.3 557.7,432.3 561.5,424.1 597.7,344.8 599.7,340.3 	
		"/>
	<polygon class="st40" points="523.8,266.2 470,384 412.4,384 466.2,266.2 	"/>
	<g>
		<g>
			<path class="st21" d="M637.1,443.3h-72c-2.9,0-5.3-2.4-5.3-5.3l0,0c0-2.9,2.4-5.3,5.3-5.3h72c2.9,0,5.3,2.4,5.3,5.3l0,0
				C642.4,441,640,443.3,637.1,443.3z"/>
		</g>
		<g>
			<rect x="601" y="436.3" class="st16" width="10.3" height="3.1"/>
			<rect x="590.4" y="436.3" class="st16" width="7.5" height="3.1"/>
		</g>
	</g>
</g>
<g>
	<g>
		<path class="st41" d="M535.8,400.5v43.1h-36v-43.1c0-1.9,1.5-3.4,3.4-3.4h29.1C534.2,397.1,535.8,398.6,535.8,400.5z"/>
		<g>
			<path class="st7" d="M500.2,436.2c-0.5-0.3-11.5-6.7-12.5-18.1c-0.4-4.3,1.3-7,2.7-8.5c4-4.1,10.5-3.8,11.3-3.8l-0.3,5.3
				c-1.3-0.1-5.3,0.2-7.2,2.2c-1,1-1.4,2.5-1.2,4.4c0.8,8.6,9.8,13.9,9.9,14L500.2,436.2z"/>
		</g>
	</g>
	<path class="st7" d="M519,443.6h-19.2v-43.1c0-1.9,1.5-3.4,3.4-3.4h1.2c0.1,2.2,0.7,19.4,5.5,31.8
		C514.1,439.6,517.8,442.8,519,443.6z"/>
	<path class="st42" d="M487.7,418.1c0.9,10.2,9.9,16.5,12.1,17.8v7.7H519c-1.1-0.8-4.9-3.9-9.1-14.7c-4.8-12.4-5.4-29.6-5.5-31.8
		h-1.2c-1.9,0-3.4,1.5-3.4,3.4v5.4c-2.4,0.2-6.5,0.9-9.4,3.8C489,411.1,487.4,413.8,487.7,418.1z M494.2,413.3
		c1.4-1.4,3.8-2,5.6-2.2v18.2c-2.7-2.3-6.3-6.4-6.8-11.7C492.8,415.8,493.2,414.3,494.2,413.3z"/>
</g>
<g>
	<g>
		
			<rect x="120" y="362.8" transform="matrix(0.9847 0.1743 -0.1743 0.9847 70.062 -15.2849)" class="st43" width="4.1" height="57.1"/>
		
			<rect x="122.7" y="361.7" transform="matrix(0.9847 0.1743 -0.1743 0.9847 66.4506 -16.2764)" class="st43" width="6.4" height="17.2"/>
	</g>
	<g>
		<polygon class="st44" points="112.3,427 108.2,426.7 113,369.7 115.5,366.1 117.1,370.1 		"/>
	</g>
	<g>
		<polygon class="st45" points="106.6,429.9 102.5,430.7 91.6,374.6 93,370.4 95.7,373.8 		"/>
	</g>
	<g>
		<polygon class="st46" points="115.7,443 98,443 92.2,396.1 121.5,396.1 		"/>
		<polygon class="st47" points="122.4,443 104.7,443 102.1,396.1 128.2,396.1 		"/>
	</g>
</g>
<g>
	<g>
		<path class="st37" d="M668.7,513.6v25.8h90c5.6,0,10.4-3.6,12.1-8.6c0.5-1.3,0.7-2.8,0.7-4.3c0-3.5-1.4-6.8-3.8-9.1
			c-2.3-2.3-5.6-3.8-9.1-3.8H668.7z"/>
		<path class="st42" d="M688.8,530.8v8.6h69.9c5.6,0,10.4-3.6,12.1-8.6H688.8z"/>
		<path class="st36" d="M649.4,513.5l0,25.8l59,0c7.1,0,12.9-5.8,12.9-12.9c0-3.6-1.4-6.8-3.8-9.1c-2.3-2.3-5.6-3.8-9.1-3.8
			L649.4,513.5z"/>
		<path class="st4" d="M649.4,518l0,16.5l55.6,0c4.6,0,8.3-3.7,8.3-8.3c0-2.3-0.9-4.3-2.4-5.8c-1.5-1.5-3.6-2.4-5.8-2.4L649.4,518z"
			/>
	</g>
	<g>
		<path class="st48" d="M667,462.3v25.8l90,0c7.1,0,12.9-5.8,12.9-12.9c0-3.6-1.4-6.8-3.8-9.1c-2.3-2.3-5.6-3.8-9.1-3.8L667,462.3z"
			/>
		<path class="st49" d="M687.4,470.9v-8.6h69.9c5.6,0,10.4,3.6,12.1,8.6H687.4z"/>
		<path class="st50" d="M649.4,462.3v25.8l59,0c7.1,0,12.9-5.8,12.9-12.9c0-3.6-1.4-6.8-3.8-9.1c-2.3-2.3-5.6-3.8-9.1-3.8
			L649.4,462.3z"/>
		<path class="st4" d="M649.4,466.7v16.5l55.6,0c4.6,0,8.3-3.7,8.3-8.3c0-2.3-0.9-4.3-2.4-5.8c-1.5-1.5-3.6-2.4-5.8-2.4L649.4,466.7
			z"/>
	</g>
	<g>
		<path class="st9" d="M662.3,488.2V514h90c7.1,0,12.9-5.8,12.9-12.9c0-2.2-0.5-4.3-1.5-6.1c-0.6-1.1-1.4-2.2-2.3-3.1
			c-2.3-2.3-5.6-3.8-9.1-3.8H662.3z"/>
		<path class="st51" d="M664.7,488.2v6.8h99c-0.6-1.1-1.4-2.2-2.3-3.1c-2.3-2.3-5.6-3.8-9.1-3.8H664.7z"/>
		<path class="st51" d="M664.7,514v-6.8l99,0c-0.6,1.1-1.4,2.2-2.3,3.1c-2.3,2.3-5.6,3.8-9.1,3.8L664.7,514z"/>
		<path class="st52" d="M638.7,488.2V514l54,0c7.1,0,12.9-5.8,12.9-12.9c0-3.6-1.4-6.8-3.8-9.1c-2.3-2.3-5.6-3.8-9.1-3.8
			L638.7,488.2z"/>
		<path class="st4" d="M638.7,492.7v16.5l50.6,0c4.6,0,8.3-3.7,8.3-8.3c0-2.3-0.9-4.3-2.4-5.8c-1.5-1.5-3.6-2.4-5.8-2.4L638.7,492.7
			z"/>
	</g>
</g>
<g>
	<g>
		<g>
			<path class="st16" d="M676.2,336.8L676.2,336.8c-4.3-4.6-3.9-11.7,0.8-15.8l0.5-0.5c4.8-4.2,12.1-3.8,16.4,0.8v0
				c4.3,4.6,3.9,11.7-0.8,15.8l-0.5,0.5C687.9,341.8,680.5,341.4,676.2,336.8z"/>
			<path class="st31" d="M685.3,359.1L674,369l-32.2-34.3l11.3-9.9c7.9-6.8,19.1-7.7,27.9-3c2.2,1.2,4.2,2.7,6,4.7
				c4.4,4.7,6.5,10.8,6.2,16.7C692.9,349.1,690.3,354.8,685.3,359.1z"/>
			<path class="st8" d="M675.1,348.2l-11.3,9.9l-21.9-23.4l11.3-9.9c7.9-6.8,19.1-7.7,27.9-3c1.5,3.3,2.2,6.9,2,10.4
				C682.7,338.1,680,343.9,675.1,348.2z"/>
		</g>
		<path class="st5" d="M674.6,368.9c-3.4,3.1-13.5-2-22.6-11.4c-9-9.4-13.6-19.4-10.2-22.5c2.7-2.4,9.6,0.3,16.8,6.1
			c1.9,1.6,3.9,3.3,5.7,5.3c2.2,2.3,4.1,4.6,5.8,6.9C675.2,360.2,677.2,366.5,674.6,368.9z"/>
		<path class="st4" d="M670.2,353.2c-2.6,2.9-7.1,3.7-10.7,1.7c-4.1-2.2-5.6-7.3-3.2-11.3c0.6-1.1,1.5-1.9,2.4-2.6
			c1.9,1.6,3.9,3.3,5.7,5.3C666.6,348.6,668.5,351,670.2,353.2z"/>
	</g>
	<polyline class="st53" points="733.4,447.8 762.8,353 703.3,313.4 690.8,324 	"/>
	<g>
		<ellipse class="st16" cx="702.5" cy="313.9" rx="7.3" ry="7"/>
		<ellipse class="st10" cx="702.5" cy="313.9" rx="3.7" ry="3.5"/>
	</g>
	<path class="st10" d="M763,462.6h-75.7l0,0c0-8.3,6.7-15,15-15h45.6C756.3,447.6,763,454.3,763,462.6L763,462.6z"/>
	<rect x="702.9" y="443.8" class="st16" width="13.7" height="4.1"/>
	<g>
		<ellipse class="st16" cx="762.2" cy="353.9" rx="10.2" ry="9.9"/>
		<ellipse class="st10" cx="762.2" cy="353.9" rx="5.1" ry="4.9"/>
	</g>
</g>
<g>
	<g>
		<path class="st54" d="M827.9,468.2c-11.1,15.1-33.4,17.6-33.4,17.6s-4.3-22,6.8-37.1c11.1-15.1,33.4-17.6,33.4-17.6
			S839,453.1,827.9,468.2z"/>
		<path class="st55" d="M781.3,459.2c10.2,10,9.6,27.1,9.6,27.1s-17,0.8-27.2-9.2c-10.2-10-9.6-27.1-9.6-27.1
			S771.1,449.1,781.3,459.2z"/>
		<path class="st56" d="M806.5,451.6c2.1,18.6-12.6,35.6-12.6,35.6s-18-13.3-20.1-31.9c-2.1-18.6,12.6-35.6,12.6-35.6
			S804.4,433,806.5,451.6z"/>
	</g>
	<g>
		<polygon class="st57" points="805.1,538.6 766.5,538.6 753.9,482.3 817.8,482.3 		"/>
		<polygon class="st34" points="819.7,538.6 781.1,538.6 775.4,482.3 832.4,482.3 		"/>
	</g>
</g>
</svg>
